:version 1.10
:name ASF
:units
  mass 1
  length 1
  angle deg
:documentation
  ASF file generated by Kaydara
:root
  axis xyz
  order  tx ty tz rx ry rz
  position 0 0 0
  orientation 0 0 0
:bonedata
  begin
    id 1
    name RightUpLegDummy
    direction -0.718183 -0.695806 0.00816078
    length 4.904
    axis 0 0 0 xyz
  end
  begin
    id 2
    name RightUpLeg
    direction -0.0736652 -0.994202 0.0783343
    length 17.4976
    axis -2.72909 -3.00389 -4.00133 xyz
    dof rx ry rz
  end
  begin
    id 3
    name RightLeg
    direction -0.0389037 -0.994596 -0.0962598
    length 16.5821
    axis 3.95836 -18.5909 -4.46993 xyz
    dof rx ry rz
  end
  begin
    id 4
    name RightFoot
    direction -0.311643 -0.412678 0.855906
    length 3.77069
    axis -1.99483 -18.8351 -3.27644 xyz
    dof rx ry rz
  end
  begin
    id 5
    name RightToes
    direction -0.317852 0.0389852 0.947339
    length 3.85082
    axis -2.00228 -18.1713 -3.25211 xyz
    dof rx ry rz
  end
  begin
    id 6
    name SpineDummy
    direction 8.3039e-015 1 4.44677e-016
    length 4.6813
    axis 0 0 0 xyz
  end
  begin
    id 7
    name Spine
    direction -0.000262373 0.999988 0.00493267
    length 10.1015
    axis -0.00246081 0.00062579 0.0150362 xyz
    dof rx ry rz
  end
  begin
    id 8
    name Spine1
    direction 0 0 0
    length 0
    axis -0.00349562 0.000650293 0.0196666 xyz
    dof rx ry rz
  end
  begin
    id 9
    name HEadDummy
    direction -0.000343232 0.999999 0.00123745
    length 3.43865
    axis -0.00349562 0.000650293 0.0196666 xyz
  end
  begin
    id 10
    name HEad
    direction -0.0461221 0.980933 0.188796
    length 5.12695
    axis -0.00351404 -7.04812 0.0199272 xyz
    dof rx ry rz
  end
  begin
    id 11
    name LeftShoulder1Dummy
    direction 0.998904 -0.0399089 -0.0244534
    length 3.5433
    axis -0.00349562 0.000650293 0.0196666 xyz
  end
  begin
    id 12
    name LeftShoulder1
    direction 0.99951 1.64443e-005 0.0312999
    length 4.05031
    axis -0.00349562 0.000650293 0.0196666 xyz
    dof rx ry rz
  end
  begin
    id 13
    name LeftArm
    direction 0.984791 0.0515299 0.165927
    length 12.9126
    axis -64.823 -10.7743 5.20463 xyz
    dof rx ry rz
  end
  begin
    id 14
    name LeftForeArm
    direction 0.984968 0.0534808 0.16425
    length 10.8596
    axis -30.0462 -7.70601 1.87451 xyz
    dof rx ry rz
  end
  begin
    id 15
    name LeftHand
    direction 0.975871 0.0289682 0.216418
    length 6.62295
    axis -20.1348 -6.98077 1.86072 xyz
    dof rx ry rz
  end
  begin
    id 16
    name RightShoulderDummy
    direction -0.998877 -0.0405946 -0.0244307
    length 3.5433
    axis -0.00349562 0.000650293 0.0196666 xyz
  end
  begin
    id 17
    name RightShoulder
    direction -0.998933 -0.0249743 -0.0388558
    length 4.05031
    axis -0.0205316 -4.02113 1.41395 xyz
    dof rx ry rz
  end
  begin
    id 18
    name RightArm
    direction -0.997559 0.068664 0.0127103
    length 12.9638
    axis -67.3882 1.84188 -6.15987 xyz
    dof rx ry rz
  end
  begin
    id 19
    name RightForeArm
    direction -0.991508 0.0912848 0.0926241
    length 10.8312
    axis -22.1975 3.41087 -4.28711 xyz
    dof rx ry rz
  end
  begin
    id 20
    name RightHand
    direction -0.989262 0.0600788 0.133232
    length 6.57864
    axis -12.2911 2.17515 -4.39675 xyz
    dof rx ry rz
  end
  begin
    id 21
    name LeftUpLegDummy
    direction 0.718183 -0.695806 0.00816078
    length 4.904
    axis 0 0 0 xyz
  end
  begin
    id 22
    name LeftUpLeg
    direction 0.0831398 -0.99469 0.0606531
    length 17.4976
    axis -1.71016 2.29552 4.63832 xyz
    dof rx ry rz
  end
  begin
    id 23
    name LeftLeg
    direction 0.0498442 -0.991778 -0.117862
    length 16.5821
    axis 5.13757 15.5727 5.13348 xyz
    dof rx ry rz
  end
  begin
    id 24
    name LeftFoot
    direction 0.269026 -0.433896 0.85986
    length 3.77069
    axis -0.576502 15.6961 4.10267 xyz
    dof rx ry rz
  end
  begin
    id 25
    name LeftToes
    direction 0.277311 0.0251143 0.960452
    length 3.85048
    axis -0.576502 15.6961 4.10267 xyz
    dof rx ry rz
  end
:hierarchy
  begin
    root RightUpLegDummy SpineDummy LeftUpLegDummy
    RightUpLegDummy RightUpLeg
    RightUpLeg RightLeg
    RightLeg RightFoot
    RightFoot RightToes
    SpineDummy Spine
    Spine Spine1
    Spine1 HEadDummy LeftShoulder1Dummy RightShoulderDummy
    HEadDummy HEad
    LeftShoulder1Dummy LeftShoulder1
    LeftShoulder1 LeftArm
    LeftArm LeftForeArm
    LeftForeArm LeftHand
    RightShoulderDummy RightShoulder
    RightShoulder RightArm
    RightArm RightForeArm
    RightForeArm RightHand
    LeftUpLegDummy LeftUpLeg
    LeftUpLeg LeftLeg
    LeftLeg LeftFoot
    LeftFoot LeftToes
  end

:SAMPLES-PER-SECOND 30
:FULLY-SPECIFIED
:DEGREES
1
root  -4.55096 40.2495 -4.9227 -0.263593 -4.87873 0.151085
RightUpLeg  -1.55515 -1.01239 0.940225
RightLeg  0.443503 -12.8626 1.46854
RightFoot  0.916832 0.0197911 -0.244763
RightToes  1.74624e-010 -3.18055e-015 -2.98177e-016
Spine  -3.5807 0.0692775 -0.409895
Spine1  10.3794 -0.501099 2.59751
HEad  -8.52037 7.12128 2.6663
LeftShoulder1  -3.88251e-019 9.70628e-020 -3.87848e-018
LeftArm  -13.6935 41.3021 -38.6692
LeftForeArm  -5.93891 -3.74662 -0.123178
LeftHand  0.0441534 -0.00108844 -1.03235
RightShoulder  5.6056 9.12256 28.251
RightArm  -2.57388 -29.8082 7.59578
RightForeArm  -12.1862 7.50005 -8.18785
RightHand  -0.172702 -0.409496 -3.84234
LeftUpLeg  -2.14917 -1.75246 -1.11151
LeftLeg  3.23099 11.3581 2.97845
LeftFoot  0.024818 0.0646525 -0.62073
LeftToes  7.37594e-011 2.64622e-011 -6.25182e-011
2
root  -4.53361 40.2526 -4.89994 -0.233157 -5.04002 0.137974
RightUpLeg  -1.54632 -0.966148 0.950989
RightLeg  0.367631 -12.7597 1.47005
RightFoot  0.96282 0.0202601 -0.249571
RightToes  1.74624e-010 -3.18055e-015 -2.98177e-016
Spine  -3.60867 0.0900512 -0.493817
Spine1  10.2467 -0.518048 2.7477
HEad  -8.33838 7.2929 2.49455
LeftShoulder1  -3.88251e-019 9.70628e-020 -3.87848e-018
LeftArm  -13.5195 41.6126 -38.6575
LeftForeArm  -6.84101 -3.90649 -0.221357
LeftHand  0.0277126 0.871578 -0.891503
RightShoulder  5.58022 9.09061 28.1728
RightArm  -2.70351 -29.7763 7.72997
RightForeArm  -12.3642 7.24127 -8.16867
RightHand  -0.159919 -1.65843 -4.65444
LeftUpLeg  -2.09232 -1.7412 -1.12499
LeftLeg  3.18127 11.5097 2.95626
LeftFoot  0.00673186 0.0622723 -0.595721
LeftToes  7.37594e-011 2.64622e-011 -6.25182e-011
3
root  -4.50067 40.2585 -4.85341 -0.189292 -5.3669 0.111296
RightUpLeg  -1.50692 -0.909007 0.954545
RightLeg  0.229097 -12.5028 1.50229
RightFoot  1.04078 0.0232881 -0.280614
RightToes  1.74624e-010 -3.18055e-015 -2.98177e-016
Spine  -3.61203 0.13152 -0.590894
Spine1  9.94233 -0.523555 2.93973
HEad  -7.98513 7.61818 2.24618
LeftShoulder1  -3.88251e-019 9.70628e-020 -3.87848e-018
LeftArm  -13.3569 42.1713 -38.6374
LeftForeArm  -7.69548 -4.07463 -0.297764
LeftHand  0.0139047 1.57432 -0.721373
RightShoulder  5.56082 9.07062 28.1034
RightArm  -2.48052 -29.8167 7.75652
RightForeArm  -13.2554 7.34696 -7.97007
RightHand  -0.123296 -3.19995 -5.59751
LeftUpLeg  -1.95795 -1.70928 -1.14511
LeftLeg  3.08554 11.8139 2.90736
LeftFoot  -0.0385001 0.0590755 -0.562132
LeftToes  7.37594e-011 2.64622e-011 -6.25182e-011
4
root  -4.46784 40.2624 -4.80733 -0.120044 -5.66922 0.0988278
RightUpLeg  -1.52969 -0.898653 0.925074
RightLeg  0.171416 -12.2203 1.52909
RightFoot  1.07701 0.0238247 -0.286116
RightToes  1.74624e-010 -3.18055e-015 -2.98177e-016
Spine  -3.58694 0.160904 -0.591668
Spine1  9.5934 -0.493816 2.94922
HEad  -7.73808 7.85908 2.09959
LeftShoulder1  -3.88251e-019 9.70628e-020 -3.87848e-018
LeftArm  -13.4345 42.5917 -38.6517
LeftForeArm  -7.58282 -4.04217 -0.254921
LeftHand  0.021874 1.31912 -0.872895
RightShoulder  5.59389 9.09747 28.2367
RightArm  -1.9994 -29.9802 7.51343
RightForeArm  -13.9595 7.92401 -7.8039
RightHand  -0.11731 -3.26294 -5.54298
LeftUpLeg  -1.86832 -1.68077 -1.17419
LeftLeg  3.01609 12.1004 2.85141
LeftFoot  -0.100691 0.0553074 -0.52254
LeftToes  7.37594e-011 2.64622e-011 -6.25182e-011
5
root  -4.44156 40.2622 -4.77568 -0.0272596 -5.8476 0.110918
RightUpLeg  -1.6559 -0.930066 0.869269
RightLeg  0.256121 -12.0177 1.50493
RightFoot  1.04781 0.0184317 -0.230827
RightToes  1.74624e-010 -3.18055e-015 -2.98177e-016
Spine  -3.60332 0.163005 -0.505593
Spine1  9.36852 -0.446048 2.77141
HEad  -7.77177 7.87681 2.05994
LeftShoulder1  -3.88251e-019 9.70628e-020 -3.87848e-018
LeftArm  -13.6542 42.7148 -38.724
LeftForeArm  -6.98683 -3.82894 -0.174185
LeftHand  0.0477513 0.719263 -1.40182
RightShoulder  5.65171 9.12212 28.5159
RightArm  -1.93466 -30.1361 7.35661
RightForeArm  -13.7161 8.22674 -7.9277
RightHand  -0.13996 -2.29766 -4.73735
LeftUpLeg  -1.8867 -1.68447 -1.2219
LeftLeg  3.01824 12.2902 2.82758
LeftFoot  -0.168496 0.0526844 -0.49498
LeftToes  7.37594e-011 2.64622e-011 -6.25182e-011
6
root  -4.41859 40.2601 -4.74955 0.0195835 -5.96517 0.12013
RightUpLeg  -1.75175 -0.963533 0.820294
RightLeg  0.382366 -11.8684 1.45348
RightFoot  0.993559 0.0110577 -0.155232
RightToes  1.74624e-010 -3.18055e-015 -2.98177e-016
Spine  -3.67827 0.141095 -0.433318
Spine1  9.3223 -0.429173 2.60865
HEad  -8.00624 7.7383 1.99421
LeftShoulder1  -3.88251e-019 9.70628e-020 -3.87848e-018
LeftArm  -13.7789 42.7418 -38.8168
LeftForeArm  -6.72191 -3.62546 -0.163736
LeftHand  0.0701475 0.582136 -1.94173
RightShoulder  5.68478 9.11254 28.7253
RightArm  -2.4463 -30.1214 7.61809
RightForeArm  -13.0206 7.84027 -8.19494
RightHand  -0.14125 -1.78294 -4.14025
LeftUpLeg  -1.90741 -1.7098 -1.27458
LeftLeg  3.08368 12.4329 2.85965
LeftFoot  -0.253503 0.0540656 -0.509493
LeftToes  7.37594e-011 2.64622e-011 -6.25182e-011
7
root  -4.39671 40.2582 -4.71519 -0.0297239 -6.09698 0.0952714
RightUpLeg  -1.69263 -0.981333 0.802805
RightLeg  0.448056 -11.715 1.42668
RightFoot  0.944432 0.00589958 -0.102355
RightToes  1.74624e-010 -3.18055e-015 -2.98177e-016
Spine  -3.75645 0.0997998 -0.435001
Spine1  9.37369 -0.472353 2.60232
HEad  -8.27682 7.59286 1.82581
LeftShoulder1  -3.88251e-019 9.70628e-020 -3.87848e-018
LeftArm  -13.7487 42.8886 -38.8891
LeftForeArm  -6.84536 -3.57057 -0.226174
LeftHand  0.0688595 0.893591 -2.08643
RightShoulder  5.6975 9.11522 28.7922
RightArm  -2.9227 -29.9739 8.0711
RightForeArm  -12.6688 7.26445 -8.2785
RightHand  -0.131494 -1.9151 -3.97412
LeftUpLeg  -1.82646 -1.71158 -1.2962
LeftLeg  3.19171 12.5604 2.92823
LeftFoot  -0.378664 0.0577124 -0.54781
LeftToes  7.37594e-011 2.64622e-011 -6.25182e-011
8
root  -4.37917 40.256 -4.67419 -0.12546 -6.21792 0.0436421
RightUpLeg  -1.54982 -0.996119 0.809986
RightLeg  0.488204 -11.5753 1.42257
RightFoot  0.885411 0.00148115 -0.0570618
RightToes  1.74624e-010 -3.18055e-015 -2.98177e-016
Spine  -3.81896 0.0508171 -0.486376
Spine1  9.4544 -0.551277 2.70953
HEad  -8.52893 7.54716 1.64965
LeftShoulder1  -3.88251e-019 9.70628e-020 -3.87848e-018
LeftArm  -13.6599 43.0933 -38.9578
LeftForeArm  -6.97769 -3.64159 -0.313509
LeftHand  0.0531244 1.19292 -1.80913
RightShoulder  5.71231 9.16185 28.7775
RightArm  -2.92315 -29.9078 8.32357
RightForeArm  -12.7251 7.07889 -8.12725
RightHand  -0.132553 -1.87261 -3.96372
LeftUpLeg  -1.69396 -1.6706 -1.27394
LeftLeg  3.32253 12.6304 2.98977
LeftFoot  -0.531533 0.0585105 -0.556196
LeftToes  7.37594e-011 2.64622e-011 -6.25182e-011
9
root  -4.36694 40.2535 -4.6352 -0.201763 -6.29703 0.00373575
RightUpLeg  -1.4487 -1.02113 0.810999
RightLeg  0.570679 -11.4671 1.40357
RightFoot  0.807682 -0.00410468 0.000196278
RightToes  1.74624e-010 -3.18055e-015 -2.98177e-016
Spine  -3.88465 0.0196949 -0.555884
Spine1  9.5531 -0.615617 2.83859
HEad  -8.76585 7.64843 1.61773
LeftShoulder1  -3.88251e-019 9.70628e-020 -3.87848e-018
LeftArm  -13.5534 43.2053 -39.0442
LeftForeArm  -7.06147 -3.74906 -0.409267
LeftHand  0.037958 1.37222 -1.43012
RightShoulder  5.71241 9.19796 28.7015
RightArm  -2.68632 -30.0151 8.38252
RightForeArm  -12.9495 7.20348 -7.9436
RightHand  -0.145979 -1.65655 -4.17023
LeftUpLeg  -1.5776 -1.62368 -1.24767
LeftLeg  3.42112 12.6511 3.0171
LeftFoot  -0.658969 0.0559674 -0.529475
LeftToes  7.37594e-011 2.64622e-011 -6.25182e-011
10
root  -4.35586 40.2525 -4.59926 -0.276743 -6.38443 0.00284164
RightUpLeg  -1.37068 -1.05714 0.779453
RightLeg  0.667061 -11.3344 1.36515
RightFoot  0.736688 -0.00881381 0.0484664
RightToes  1.74624e-010 -3.18055e-015 -2.98177e-016
Spine  -3.91045 0.0241884 -0.632328
Spine1  9.6233 -0.632589 2.93484
HEad  -8.98246 7.82051 1.75515
LeftShoulder1  -3.88251e-019 9.70628e-020 -3.87848e-018
LeftArm  -13.4572 43.2213 -39.113
LeftForeArm  -7.11858 -3.81447 -0.472004
LeftHand  0.030933 1.4803 -1.25542
RightShoulder  5.68877 9.1796 28.6058
RightArm  -2.52988 -30.1567 8.44881
RightForeArm  -13.3889 7.33504 -7.82666
RightHand  -0.154576 -1.78062 -4.54079
LeftUpLeg  -1.42168 -1.61565 -1.26833
LeftLeg  3.42178 12.7195 3.01296
LeftFoot  -0.723778 0.0545542 -0.514626
LeftToes  7.37594e-011 2.64622e-011 -6.25182e-011
11
root  -4.3439 40.2538 -4.56465 -0.380692 -6.53501 0.0309452
RightUpLeg  -1.25352 -1.09088 0.724709
RightLeg  0.71514 -11.1394 1.33015
RightFoot  0.694991 -0.011071 0.0716029
RightToes  1.74624e-010 -3.18055e-015 -2.98177e-016
Spine  -3.84951 0.0557395 -0.679927
Spine1  9.61443 -0.597302 2.9385
HEad  -9.25204 7.83551 1.92482
LeftShoulder1  -3.88251e-019 9.70628e-020 -3.87848e-018
LeftArm  -13.5032 43.1795 -39.1348
LeftForeArm  -6.90029 -3.76876 -0.419545
LeftHand  0.0368799 1.3032 -1.35498
RightShoulder  5.68459 9.15691 28.6299
RightArm  -2.46998 -30.1989 8.52823
RightForeArm  -13.6844 7.43201 -7.77492
RightHand  -0.153134 -1.83484 -4.49114
LeftUpLeg  -1.18265 -1.64251 -1.33283
LeftLeg  3.33034 12.8856 2.99194
LeftFoot  -0.740329 0.0552945 -0.522404
LeftToes  7.37594e-011 2.64622e-011 -6.25182e-011
12
root  -4.33483 40.2561 -4.53473 -0.460498 -6.72079 0.051384
RightUpLeg  -1.14623 -1.09415 0.692841
RightLeg  0.706247 -10.9475 1.30993
RightFoot  0.684801 -0.011931 0.0804182
RightToes  1.74624e-010 -3.18055e-015 -2.98177e-016
Spine  -3.78815 0.0900767 -0.653957
Spine1  9.59863 -0.530346 2.81267
HEad  -9.6862 7.54841 1.9691
LeftShoulder1  -3.88251e-019 9.70628e-020 -3.87848e-018
LeftArm  -13.775 43.0372 -39.1517
LeftForeArm  -6.39515 -3.61164 -0.251824
LeftHand  0.0531788 0.740432 -1.55613
RightShoulder  5.72784 9.18181 28.8234
RightArm  -2.54137 -30.178 8.57084
RightForeArm  -13.2061 7.46747 -7.86287
RightHand  -0.148001 -1.37887 -3.96388
LeftUpLeg  -0.963489 -1.66098 -1.38373
LeftLeg  3.22349 13.0796 2.96459
LeftFoot  -0.741635 0.0543821 -0.512818
LeftToes  7.37594e-011 2.64622e-011 -6.25182e-011
